<svg xmlns="http://www.w3.org/2000/svg" xmlns:xlink="http://www.w3.org/1999/xlink" width="130" height="160" viewBox="0 0 130 160">
    <defs>
        <linearGradient id="prefix__a" x1="50%" x2="50%" y1="0%" y2="100%">
            <stop offset="0%" stop-color="#D3B4FF"/>
            <stop offset="100%" stop-color="#A885D8"/>
        </linearGradient>
        <path id="prefix__b" d="M98.395 30.218c10.602 11.07 22.608 16.782 27.99 26.27 5.383 9.455 4.144 22.687.262 35.306-3.85 12.586-10.31 24.527-20.292 37.403-9.983 12.877-23.489 26.657-39.083 29.53-15.594 2.872-33.276-5.164-40.78-18.848-7.502-13.683-4.795-32.95-9.818-49.473C11.682 73.915-1.041 60.166.068 49.065c1.11-11.102 16.05-19.622 29.883-29.626C43.816 9.434 56.604-2.12 67.598.333c10.994 2.42 20.194 18.848 30.797 29.885"/>
    </defs>
    <g fill="none" fill-rule="evenodd">
        <use fill="url(#prefix__a)" xlink:href="#prefix__b"/>
        <use fill="#EEE" xlink:href="#prefix__b"/>
        <g>
            <path fill="#FFF" d="M93.782 75.133l-3.148 6.95-14.036-6.236 6.297-13.898 7.017 3.117c3.882 1.724 5.612 6.223 3.87 10.067zM81.19 102.93l-56.146-24.94 6.297-13.9 56.146 24.941-6.297 13.9zm-6.297 13.9c-1.74 3.843-6.284 5.556-10.166 3.831l-7.018-3.117 6.296-13.9 14.037 6.236-3.149 6.95zm-38.24-8.639l6.297-13.899 14.037 6.235-6.297 13.899-14.036-6.235zm-14.036-6.235c-3.882-1.724-5.611-6.223-3.87-10.067l3.149-6.95 14.036 6.235-6.296 13.9-7.019-3.118zm15.02-51.764c1.742-3.844 6.285-5.557 10.167-3.832l7.018 3.117-6.297 13.9-14.036-6.236 3.149-6.949zm24.204 2.403l14.036 6.235L69.58 72.73l-14.037-6.235 6.297-13.899zm39.944-32.345L59.675 1.546c-7.742-3.439-16.86-.002-20.333 7.664L1.562 92.604c-3.473 7.667-.003 16.696 7.74 20.135l56.145 24.94c7.743 3.438 16.86.002 20.333-7.664l31.484-69.496-15.48-40.268z" transform="translate(5.876 10.91)"/>
            <g fill="#FF7900">
                <path d="M3.826 39.251l-3.148 6.95c-1.742 3.844-.012 8.342 3.87 10.067l7.018 3.117 6.296-13.9-14.036-6.234zM51.511 27.04L57.807 13.141 43.771 6.906 37.474 20.805zM36.753 3.789L29.734.67C25.852-1.053 21.31.66 19.568 4.503l-3.149 6.95 14.037 6.235 6.297-13.9zM39.639 71.855l7.018 3.118c3.882 1.724 8.425.012 10.166-3.832l3.149-6.95-14.037-6.235-6.296 13.9zM24.881 48.604L18.584 62.503 32.621 68.738 38.917 54.839zM71.844 19.376l-7.019-3.117-6.296 13.899 14.036 6.235 3.149-6.95c1.741-3.843.012-8.342-3.87-10.067M6.974 32.302L63.12 57.241 69.417 43.343 13.271 18.402z" transform="translate(5.876 10.91) translate(18.803 48.599)"/>
            </g>
            <path stroke="#000" d="M93.782 75.133l-3.148 6.95-14.036-6.236 6.297-13.898 7.017 3.117c3.882 1.724 5.612 6.223 3.87 10.067zM81.19 102.93l-56.146-24.94 6.297-13.9 56.146 24.941-6.297 13.9zm-6.297 13.9c-1.74 3.843-6.284 5.556-10.166 3.831l-7.018-3.117 6.296-13.9 14.037 6.236-3.149 6.95zm-38.24-8.639l6.297-13.899 14.037 6.235-6.297 13.899-14.036-6.235zm-14.036-6.235c-3.882-1.724-5.611-6.223-3.87-10.067l3.149-6.95 14.036 6.235-6.296 13.9-7.019-3.118zm15.02-51.764c1.742-3.844 6.285-5.557 10.167-3.832l7.018 3.117-6.297 13.9-14.036-6.236 3.149-6.949zm24.204 2.403l14.036 6.235L69.58 72.73l-14.037-6.235 6.297-13.899zm39.944-32.345L59.675 1.546c-7.742-3.439-16.86-.002-20.333 7.664L1.562 92.604c-3.473 7.667-.003 16.696 7.74 20.135l56.145 24.94c7.743 3.438 16.86.002 20.333-7.664l31.484-69.496-15.48-40.268z" transform="translate(5.876 10.91)"/>
        </g>
    </g>
</svg>
